<?xml version="1.0" encoding="UTF-8"?>
<svg version="1.1" xmlns="http://www.w3.org/2000/svg" width="1164" height="1182">
<path d="M0 0 C384.12 0 768.24 0 1164 0 C1164 390.06 1164 780.12 1164 1182 C779.88 1182 395.76 1182 0 1182 C0 791.94 0 401.88 0 0 Z " fill="#FDFDFD" transform="translate(0,0)"/>
<path d="M0 0 C384.12 0 768.24 0 1164 0 C1164 390.06 1164 780.12 1164 1182 C779.88 1182 395.76 1182 0 1182 C0 791.94 0 401.88 0 0 Z M349.64214051 45.27475679 C346.82562064 45.30731328 344.00915014 45.33437724 341.19252384 45.35576212 C320.18808614 45.53321555 299.4043158 46.8517202 278.875 51.5625 C277.22939087 51.93604614 277.22939087 51.93604614 275.55053711 52.31713867 C254.64970203 57.27937677 234.25119304 64.47154822 215 74 C214.24315918 74.36496582 213.48631836 74.72993164 212.70654297 75.10595703 C191.96130555 85.15985785 172.91457296 98.55764689 155 113 C154.40654785 113.47775879 153.8130957 113.95551758 153.20166016 114.44775391 C142.55571277 123.08548172 132.92962059 132.37061983 124.375 143.125 C121.72395461 146.33416021 118.91741115 149.34862271 116.0625 152.375 C77.83755496 193.27226052 54.1020379 249.95229737 47 305 C46.74837459 306.8763134 46.74837459 306.8763134 46.49166584 308.79053211 C44.54243764 324.69584362 44.70621897 340.63549931 44.72389162 356.62942564 C44.72638726 360.87159204 44.71730991 365.11373757 44.70985413 369.355896 C44.69718266 377.64072185 44.69530395 385.92551519 44.69765439 394.21034911 C44.69944634 400.95355845 44.69766925 407.69675802 44.69342995 414.4399662 C44.69283476 415.40419013 44.69223957 416.36841405 44.69162634 417.36185688 C44.69041444 419.32146992 44.6892003 421.28108296 44.68798397 423.24069599 C44.67713738 441.56902272 44.67925714 459.897331 44.68536881 478.22565875 C44.69053457 494.93965862 44.67928638 511.65360015 44.66027059 528.36758848 C44.64083034 545.58860684 44.63264705 562.80959769 44.63639385 580.03062707 C44.63829664 589.67519923 44.63590909 599.31972178 44.62167931 608.9642849 C44.60968523 617.1756583 44.60844949 625.38695156 44.62046947 633.59832623 C44.62630264 637.7756891 44.62761494 641.95290597 44.61546707 646.13025856 C44.55299288 669.17583041 45.5430933 691.90212254 50.5 714.5 C50.74862793 715.63687256 50.99725586 716.77374512 51.25341797 717.94506836 C67.59854144 788.89057348 108.72524347 853.47664174 167.6875 896.31640625 C169.69839445 897.78041893 171.69551078 899.26045449 173.6875 900.75 C235.49012775 946.55972408 304.83790563 955.09509029 379.21575737 955.16866493 C384.80166942 955.17469009 390.38752162 955.19132273 395.97340393 955.21000671 C397.90091226 955.21633859 399.82842062 955.22266427 401.75592899 955.22898388 C402.71903087 955.23214969 403.68213274 955.2353155 404.67441952 955.23857725 C417.63279083 955.28041525 430.59112574 955.31374618 443.54956055 955.32592773 C452.36183343 955.33429535 461.17394871 955.35670492 469.98614269 955.3952834 C474.6305037 955.41502435 479.2746293 955.42745353 483.91903496 955.42244911 C488.26395256 955.41782018 492.60841867 955.43151066 496.95324516 955.45946121 C498.54639199 955.46639233 500.13958531 955.46647896 501.73273087 955.45926094 C503.90463262 955.45041134 506.07503157 955.46599748 508.24681091 955.48774719 C509.4616941 955.49013555 510.67657728 955.4925239 511.92827511 955.49498463 C515.62056516 956.10202572 516.72910782 957.08862999 519 960 C520.16454049 962.11155587 521.25086949 964.26720745 522.27734375 966.44921875 C525.66521087 973.47628218 529.52067583 980.13860385 533.5625 986.8125 C534.97572041 989.16667361 536.38344679 991.52409152 537.7890625 993.8828125 C538.14159592 994.47420517 538.49412933 995.06559784 538.85734558 995.6749115 C544.27253711 1004.79036326 549.3836469 1014.07865609 554.5234375 1023.35107422 C555.7820407 1025.60898506 557.05515129 1027.85678763 558.34375 1030.09765625 C562.61494772 1037.53815529 566.60834608 1045.09706025 570.51171875 1052.73608398 C584.97072081 1081.03102394 600.22410888 1106.62370976 632 1117 C646.16542857 1121.03216357 662.01781134 1122.27036085 676 1117 C677.21558594 1116.55140625 678.43117188 1116.1028125 679.68359375 1115.640625 C683.50220809 1114.19359619 687.25279063 1112.62323435 691 1111 C691.84820313 1110.63261719 692.69640625 1110.26523438 693.5703125 1109.88671875 C716.0787666 1098.79384263 727.28717186 1068.77805366 739 1048 C739.57927246 1046.97261719 740.15854492 1045.94523437 740.75537109 1044.88671875 C741.30402832 1043.91347656 741.85268555 1042.94023438 742.41796875 1041.9375 C743.48686017 1040.04159957 744.55586818 1038.14576487 745.625 1036.25 C746.14698975 1035.32421143 746.66897949 1034.39842285 747.20678711 1033.44458008 C754.46342835 1020.60297872 761.90072542 1007.86279539 769.45703125 995.1953125 C774.50669105 986.72608915 779.52524708 978.25286247 784.1875 969.5625 C784.73144409 968.56101929 784.73144409 968.56101929 785.28637695 967.53930664 C785.61855225 966.90887451 785.95072754 966.27844238 786.29296875 965.62890625 C786.5768042 965.09338135 786.86063965 964.55785645 787.15307617 964.00610352 C788.38696458 961.08339927 789.16577103 958.05671162 790 955 C791.07781738 954.97494385 792.15563477 954.9498877 793.26611328 954.92407227 C797.33292998 954.82863597 801.3996287 954.72877009 805.46630859 954.62768555 C807.21367601 954.58484376 808.96107184 954.54314283 810.70849609 954.50268555 C825.58071857 954.15711755 840.21678081 953.64136348 854.875 950.875 C856.03628418 950.65618164 857.19756836 950.43736328 858.39404297 950.21191406 C870.17589998 947.901369 881.59518764 944.73217975 893 941 C894.51907959 940.5052417 894.51907959 940.5052417 896.06884766 940.00048828 C947.02459894 923.14336798 992.10328286 892.64306132 1025.76953125 850.75390625 C1028.04934989 847.93906887 1030.39740993 845.19165939 1032.75 842.4375 C1043.29027598 829.77282731 1052.45603427 816.22386949 1060.79931641 802.02978516 C1061.8700999 800.21959932 1062.97021002 798.42683461 1064.07421875 796.63671875 C1081.11837825 768.32197913 1092.20021591 735.31992346 1097.1875 702.75 C1097.34259033 701.7408252 1097.49768066 700.73165039 1097.6574707 699.69189453 C1100.73550808 678.08356893 1101.29886449 656.48800175 1101.26144934 634.6963737 C1101.256849 630.71670436 1101.26394548 626.73705117 1101.26940918 622.75738525 C1101.27822593 614.99547973 1101.27641587 607.23361324 1101.2705839 599.47170629 C1101.266036 593.15289614 1101.26546789 586.83409681 1101.26763153 580.51528549 C1101.267938 579.61017484 1101.26824446 578.70506418 1101.26856022 577.77252593 C1101.26919978 575.93282176 1101.26984821 574.09311759 1101.2705054 572.25341342 C1101.27618625 555.06814874 1101.26968658 537.88290551 1101.25890467 520.69764434 C1101.24997426 506.0098446 1101.25152138 491.32207651 1101.26074219 476.63427734 C1101.27148999 459.50654229 1101.27563397 442.37882598 1101.26951766 425.25108802 C1101.26888068 423.41817403 1101.26825194 421.58526004 1101.26763153 419.75234604 C1101.26732298 418.85092787 1101.26701443 417.9495097 1101.26669653 417.02077583 C1101.26498283 410.72386915 1101.26785585 404.42697454 1101.27259064 398.13006973 C1101.27825005 390.43559406 1101.27657844 382.74115909 1101.26602915 375.04668798 C1101.26083904 371.13451268 1101.25859889 367.22240477 1101.26532745 363.31023026 C1101.40816905 272.61718109 1072.19159469 193.22916914 1008.25 128.125 C1004.63402992 124.58633094 1000.8658478 121.26275142 997 118 C996.24178955 117.34717041 996.24178955 117.34717041 995.46826172 116.68115234 C956.44766732 83.20434438 908.41535547 59.99134725 858 50 C857.29085449 49.85127441 856.58170898 49.70254883 855.85107422 49.54931641 C828.59805213 43.90400239 800.21780085 44.70451648 772.53105557 44.75320971 C767.44977854 44.75989565 762.36850982 44.75481439 757.28723145 44.75132751 C747.36291578 44.74632496 737.43863386 44.75188071 727.51432239 44.76117782 C715.8796606 44.77167449 704.2450057 44.7714885 692.61034007 44.77100524 C671.77806152 44.77050603 650.94579837 44.7796194 630.11352539 44.79418945 C610.06599649 44.80820278 590.01848114 44.81536307 569.97094727 44.81469727 C568.74156655 44.81465731 567.51218584 44.81461735 566.24555116 44.81457619 C565.017963 44.81453583 563.79037483 44.81449548 562.52558702 44.8144539 C539.51121538 44.81375572 516.49684933 44.81971025 493.48247952 44.82860712 C486.57582312 44.8311564 479.66916771 44.83254391 472.76251086 44.83293601 C411.2012584 44.81741814 411.2012584 44.81741814 349.64214051 45.27475679 Z " fill="#FEFEFE" transform="translate(0,0)"/>
<path d="M0 0 C6.94688643 -0.00050243 13.89377158 -0.0028117 20.84065747 -0.00549722 C43.92112472 -0.01423436 67.00158742 -0.01892547 90.08205634 -0.01816674 C91.31143705 -0.01812679 92.54081776 -0.01808683 93.80745244 -0.01804566 C95.03838384 -0.01800478 96.26931524 -0.0179639 97.5375476 -0.01792178 C117.59543901 -0.01751314 137.65331187 -0.02715558 157.71119791 -0.04118403 C178.47294984 -0.05558734 199.23469272 -0.06245263 219.99644977 -0.06159025 C231.58767869 -0.06126055 243.17888793 -0.06390963 254.77011228 -0.0747683 C264.60220477 -0.08392393 274.43426855 -0.08600586 284.26636349 -0.07925888 C289.26273134 -0.07602438 294.25904422 -0.07582493 299.25540662 -0.08461213 C340.46551387 -0.15230295 379.32766012 2.15990025 418.83650517 15.16725707 C419.79750127 15.48033813 420.75849736 15.79341918 421.74861455 16.11598754 C459.90451129 28.72559022 494.85992406 50.02752697 524.50056767 77.05006957 C526.60569265 78.9580591 528.74264151 80.81772776 530.89900517 82.66725707 C538.10600911 88.95885526 544.7019242 95.83369727 550.83650517 103.16725707 C551.51688848 103.97694945 551.51688848 103.97694945 552.21101689 104.80299926 C604.65930713 167.45934598 625.2087381 240.03213882 625.11261356 320.60040128 C625.11010082 324.56449447 625.11921569 328.52856603 625.12665105 332.49265075 C625.13927711 340.22186904 625.141207 347.95105239 625.13885079 355.68027926 C625.13705349 361.97657553 625.13884713 368.27286137 625.14307523 374.56915641 C625.14367042 375.47197502 625.14426561 376.37479364 625.14487883 377.30497039 C625.14609083 379.14023138 625.14730497 380.97549236 625.14852121 382.81075334 C625.1593505 399.94950136 625.15725644 417.08822961 625.15113636 434.22697871 C625.14597322 449.82618501 625.15721502 465.42532874 625.17623458 481.02452267 C625.19571658 497.12931773 625.20385084 513.23408336 625.20011133 529.33889025 C625.19821465 538.3453503 625.20053468 547.35175718 625.21482587 556.35820746 C625.22687398 564.02719506 625.22799729 571.69609678 625.2160357 579.36508585 C625.21023893 583.25994801 625.20878328 587.15465422 625.2210381 591.049505 C625.26685399 606.72316556 624.89154425 622.24305819 623.46167302 637.85877013 C623.40072059 638.52998924 623.33976817 639.20120835 623.2769687 639.89276744 C621.58037635 658.14162447 618.83192208 676.62293984 612.63338017 693.93581176 C611.67772517 696.61188001 610.75906795 699.299917 609.83650517 701.98756957 C600.11099627 729.99151719 587.48400287 756.23640841 569.83650517 780.16725707 C569.32619756 780.86012816 568.81588994 781.55299926 568.29011846 782.26686645 C561.33269696 791.65060672 554.02109701 800.65979534 546.32918096 809.44801879 C544.79302408 811.21733785 543.27910531 813.00364955 541.77009892 814.79616332 C533.46480954 824.64671504 524.76513883 833.91809378 514.83650517 842.16725707 C514.33586553 842.58700805 513.83522588 843.00675902 513.31941533 843.43922973 C461.96414788 886.29739922 398.38745543 908.19182872 331.96150517 909.72975707 C330.19457075 909.7730786 328.42764357 909.81669652 326.66072392 909.86061645 C322.3860599 909.96623796 318.11131874 910.06787996 313.83650517 910.16725707 C313.59416142 910.86923217 313.35181767 911.57120727 313.10213017 912.29445434 C311.03909469 918.13790316 308.80042335 923.66499107 305.83650517 929.10475707 C305.45188115 929.82091186 305.06725713 930.53706664 304.67097783 931.27492309 C301.19824286 937.66131707 297.46836479 943.88614236 293.69734502 950.09963012 C288.85852159 958.07998753 284.19671739 966.15705991 279.54719853 974.24880004 C274.7549016 982.58635954 269.90685589 990.88979096 265.04060674 999.18434691 C261.43617162 1005.35335896 257.93569003 1011.57167521 254.48640752 1017.82863402 C231.30525469 1059.80023164 231.30525469 1059.80023164 207.83650517 1069.16725707 C206.89162236 1069.57717895 205.94673955 1069.98710082 204.97322392 1070.40944457 C185.98760638 1078.49973883 165.18412973 1076.29046831 146.34334111 1068.73854613 C139.42045379 1065.78186231 133.36309641 1062.31986845 127.83650517 1057.16725707 C126.5912708 1056.02256957 126.5912708 1056.02256957 125.32088017 1054.85475707 C119.65343899 1049.4248733 115.02897622 1043.78892274 110.83650517 1037.16725707 C110.20873174 1036.19530395 109.5809583 1035.22335082 108.93416142 1034.22194457 C103.32592672 1025.21952685 98.50840477 1015.8289439 93.67760015 1006.39528441 C82.25293232 984.10018763 69.6107558 962.5088084 56.92537236 940.9138391 C55.01870568 937.66617257 53.11506048 934.41674794 51.21150517 931.16725707 C50.63142705 930.18233275 50.05134892 929.19740844 49.45369267 928.18263793 C47.01795195 924.02385479 44.65558087 919.88542732 42.56306767 915.54225707 C41.23190169 912.11803801 41.23190169 912.11803801 38.83650517 911.16725707 C36.66753074 911.06296078 34.4952862 911.02496555 32.32382512 911.01576781 C31.64696265 911.0115354 30.97010017 911.00730299 30.27272671 911.00294232 C27.99263314 910.98987335 25.71257459 910.98388104 23.43245244 910.97780395 C21.80110769 910.96986313 20.16976506 910.9614753 18.53842473 910.95267272 C15.01462284 910.93457674 11.49082576 910.91957308 7.96700025 910.90689635 C2.36837254 910.88663774 -3.23020368 910.85897675 -8.82879329 910.83022094 C-19.74247617 910.77514725 -30.65618419 910.7271308 -41.56990504 910.68028045 C-55.36957316 910.62098881 -69.16922669 910.55999697 -82.96884376 910.48970819 C-87.60809128 910.46629814 -92.2473315 910.4447086 -96.88660693 910.42761779 C-173.3317903 910.14450612 -243.27351007 900.21409139 -306.16349483 853.16725707 C-306.85362666 852.6537268 -307.5437585 852.14019652 -308.25480342 851.61110473 C-316.9154111 845.14782133 -325.24519153 838.53345849 -333.16349483 831.16725707 C-334.53441112 829.97504494 -335.90926106 828.78733708 -337.28849483 827.60475707 C-344.13791055 821.62357714 -350.26699118 815.07593499 -356.16349483 808.16725707 C-356.96400264 807.25588988 -357.76451045 806.3445227 -358.58927608 805.40553832 C-369.68846602 792.67248865 -379.64828934 778.98540479 -387.96964717 764.27712035 C-388.8171571 762.77933286 -389.67246653 761.28594671 -390.53312373 759.79567504 C-403.26954208 737.6866136 -412.60796077 714.50393033 -420.16349483 690.16725707 C-420.38086299 689.48276488 -420.59823115 688.7982727 -420.82218623 688.09303832 C-429.99180187 659.10870988 -431.62867912 629.16989179 -431.55566883 599.00148046 C-431.54877144 594.76888369 -431.55941158 590.5363212 -431.56760859 586.30373168 C-431.58083726 578.04730859 -431.57811695 569.79096804 -431.56937067 561.53454193 C-431.56254984 554.8129279 -431.56169623 548.09133673 -431.56494212 541.36972022 C-431.56540182 540.40703991 -431.56586152 539.44435961 -431.56633515 538.45250717 C-431.56729449 536.49579899 -431.56826713 534.53909082 -431.56925292 532.58238266 C-431.57777535 514.30162044 -431.5680231 496.02090359 -431.55185182 477.74014882 C-431.53845798 462.11662638 -431.5407752 446.49317087 -431.55460811 430.86964965 C-431.57073103 412.6516032 -431.57694495 394.4335964 -431.56777132 376.21554381 C-431.56681585 374.26577628 -431.56587273 372.31600875 -431.56494212 370.36624122 C-431.56447929 369.40735314 -431.56401647 368.44846507 -431.56353962 367.46051979 C-431.56096928 360.76278204 -431.56527815 354.06506982 -431.57238078 347.36733603 C-431.58087135 339.18214845 -431.57835967 330.99704695 -431.56253855 322.81186899 C-431.55475493 318.65030583 -431.55139022 314.48888517 -431.56148601 310.32732368 C-431.61771765 285.00353511 -430.66024325 259.97369667 -424.66202998 235.23317504 C-424.18573787 233.25943171 -423.74215081 231.27788186 -423.30021358 229.29616332 C-418.76995504 209.79809023 -411.83835711 191.17651624 -403.16349483 173.16725707 C-402.57979121 171.93048217 -402.57979121 171.93048217 -401.98429561 170.66872191 C-393.8066596 153.37206698 -384.0850729 137.15624849 -372.16349483 122.16725707 C-371.43646358 121.24815551 -370.70943233 120.32905395 -369.96036983 119.38210082 C-365.38226889 113.69148935 -360.5668717 108.27337279 -355.61661983 102.90553832 C-353.27517553 100.29191976 -351.08929836 97.60674561 -348.91349483 94.85475707 C-339.85035524 83.68909653 -329.47318049 74.11714764 -317.97306514 65.52809691 C-316.13164832 64.14330774 -314.31448683 62.73090947 -312.49943233 61.31178832 C-287.53135305 41.94727643 -259.93524775 26.72891573 -230.16349483 16.16725707 C-229.39505244 15.88833617 -228.62661006 15.60941527 -227.83488154 15.32204223 C-217.16472244 11.49457422 -206.21016417 8.8937287 -195.16349483 6.41725707 C-194.51083644 6.26818908 -193.85817805 6.11912108 -193.18574214 5.96553588 C-173.32310264 1.4667663 -153.57493364 0.79425243 -133.2788728 0.57623006 C-131.11788261 0.55222956 -128.95695341 0.52502173 -126.79601252 0.4969455 C-84.53336068 -0.047831 -42.2653621 0.00241131 0 0 Z M-183.53849483 89.85475707 C-184.50545283 90.11530883 -185.47241084 90.37586059 -186.46867061 90.64430785 C-220.80170427 100.1471508 -251.56768892 117.55764691 -278.16349483 141.16725707 C-278.68282588 141.61955688 -279.20215693 142.07185668 -279.73722529 142.53786254 C-286.98667339 148.85450197 -293.24324418 155.56829641 -299.16349483 163.16725707 C-299.79384639 163.90846801 -300.42419795 164.64967895 -301.07365108 165.41335082 C-326.73624513 195.81851872 -340.70513407 235.04359838 -347.70206904 273.65382934 C-347.99727436 275.26183926 -348.32202155 276.86487957 -348.68429428 278.45911938 C-349.19870563 281.36624619 -349.29008079 284.05892535 -349.29212928 287.01088786 C-349.29535372 288.18713023 -349.29857817 289.3633726 -349.30190033 290.57525867 C-349.30035173 291.86355683 -349.29880312 293.151855 -349.29720759 294.4791925 C-349.2990761 295.86486246 -349.30137696 297.25053189 -349.30407292 298.63620049 C-349.31019321 302.44389066 -349.31005703 306.25155889 -349.30887854 310.05925286 C-349.30867457 314.1665722 -349.31419318 318.27388449 -349.31893611 322.38120055 C-349.32724631 330.43110765 -349.32999119 338.48100742 -349.33054849 346.53091844 C-349.33102382 353.08003608 -349.33307943 359.62915131 -349.33624911 366.17826819 C-349.34505951 384.76163135 -349.34966831 403.34498873 -349.34891864 421.92835399 C-349.34887868 422.93040245 -349.34883873 423.93245092 -349.34879756 424.96486449 C-349.34875668 425.96814319 -349.3487158 426.97142189 -349.34867368 428.00510297 C-349.34826791 444.23654938 -349.35781906 460.46797251 -349.37193593 476.69941219 C-349.3863291 493.38090211 -349.39320438 510.06238071 -349.39234215 526.74387699 C-349.39201102 536.10283479 -349.39472071 545.46176824 -349.4055202 554.82072043 C-349.41466432 562.79622031 -349.41676882 570.77168482 -349.41001078 578.7471877 C-349.40676417 582.81013674 -349.40662069 586.87301809 -349.41536403 590.93596053 C-349.47253274 619.07688368 -349.47253274 619.07688368 -345.28849483 646.85475707 C-345.11487422 647.6410852 -344.94125361 648.42741332 -344.76237178 649.23756957 C-344.24375603 651.55106921 -343.70752287 653.85961602 -343.16349483 656.16725707 C-342.86572139 657.44213988 -342.56794795 658.7170227 -342.26115108 660.03053832 C-332.53323073 698.90046898 -311.71985939 733.37916311 -284.16349483 762.16725707 C-283.69330928 762.66467406 -283.22312373 763.16209105 -282.73869014 763.67458129 C-247.82013904 800.47263463 -196.34833264 823.556184 -145.76847529 825.2473352 C-136.89096078 825.47222014 -128.03028455 825.18114268 -119.16016841 824.81741881 C-104.60427571 824.22283144 -90.05607046 823.95529246 -75.48994136 823.77855468 C-52.77396777 823.49802826 -30.07552689 823.002841 -7.37055659 822.24272704 C31.59611803 820.94065056 31.59611803 820.94065056 48.83140874 820.81377196 C50.49837214 820.79980383 52.1652982 820.77925276 53.83208013 820.75096679 C70.36410275 820.48792142 84.53528523 822.80093776 97.16072392 834.28053832 C107.69021546 844.91729123 112.72578135 859.25313632 116.75056767 873.37428832 C120.08315799 884.79450636 125.42628897 894.62368641 131.47322392 904.78810668 C135.54864879 911.64028389 139.51259329 918.55407892 143.46150517 925.47975707 C144.14419865 926.67637456 144.82689725 927.87298912 145.50960088 929.06960082 C146.90694715 931.51937422 148.30377311 933.96944348 149.70027471 936.41969848 C152.9213442 942.07102492 156.14602063 947.72029039 159.37208867 953.36876464 C160.36351042 955.10509325 161.35417233 956.84185565 162.34480596 958.57863402 C166.4676691 965.79929449 170.63427205 972.99251565 174.83650517 980.16725707 C184.32278617 976.07915927 189.13290441 965.62119833 193.58650517 956.91725707 C194.80832876 954.59061393 196.03231685 952.2651063 197.25838017 949.94069457 C197.86101689 948.79310668 198.46365361 947.64551879 199.08455205 946.46315551 C201.57896055 941.77049738 204.18665348 937.14852467 206.83650517 932.54225707 C207.31684209 931.70694457 207.797179 930.87163207 208.29207158 930.01100707 C209.80230273 927.39373997 211.31834254 924.77993099 212.83650517 922.16725707 C213.40401494 921.18982543 213.97152471 920.21239379 214.55623174 919.20534301 C225.52171275 900.3346545 225.52171275 900.3346545 229.69978642 893.39772582 C236.05310362 882.83007691 241.44792631 872.13432454 246.05525517 860.69069457 C246.44382695 859.72671752 246.83239873 858.76274047 247.23274541 857.76955199 C247.98659321 855.88548482 248.73153576 853.99781914 249.46565557 852.10597777 C253.75165154 841.30479508 258.23483371 832.68593537 268.83650517 827.16725707 C279.16098335 823.28423716 291.66857403 824.00232293 302.52400517 824.04225707 C304.11825322 824.03645629 304.11825322 824.03645629 305.7447083 824.03053832 C311.06763438 824.03710578 316.22331018 824.26832026 321.5013001 824.93141723 C347.59594095 827.56679862 371.30199716 822.53532198 395.83650517 814.16725707 C396.57739385 813.91605102 397.31828252 813.66484496 398.08162236 813.4060266 C421.43585923 805.28922091 442.69744869 791.60839741 461.83650517 776.16725707 C462.37517217 775.73300414 462.91383916 775.29875121 463.46882939 774.8513391 C503.9828717 741.93743771 532.28831579 691.93296824 540.46150517 640.41725707 C540.58493291 639.65614623 540.70836064 638.89503539 540.83552861 638.11086059 C543.43104156 620.69540008 542.98038996 602.9820002 542.96589971 585.42775512 C542.96670772 582.65297911 542.96900323 579.87820475 542.97120976 577.10342956 C542.97562882 570.38332102 542.97470784 563.66322373 542.97179712 556.94311478 C542.96952574 551.4689318 542.96923804 545.99475193 542.97032094 540.52056861 C542.97047417 539.73720286 542.97062741 538.95383712 542.97078528 538.14673302 C542.97110506 536.55449757 542.97142928 534.96226213 542.97175787 533.37002669 C542.9746019 518.47668603 542.97134367 503.58335154 542.96595751 488.6900119 C542.96150011 475.97270705 542.9622587 463.25541135 542.96687627 450.53810668 C542.97225788 435.70999106 542.97431722 420.88188086 542.971264 406.0537644 C542.97094552 404.46448259 542.97063115 402.87520077 542.97032094 401.28591895 C542.97016666 400.50433815 542.97001239 399.72275734 542.96985344 398.91749227 C542.96899826 393.46970121 542.97042956 388.02191366 542.97280049 382.57412314 C542.97563921 375.90574808 542.97477655 369.23738475 542.96951975 362.569011 C542.96693511 359.18119232 542.96634678 355.79340868 542.9691689 352.40558791 C543.11208667 318.5937652 543.11208667 318.5937652 540.46150517 284.91725707 C540.32921514 283.80141234 540.1969251 282.68556762 540.06062627 281.53590941 C539.01437394 272.99337705 537.68811875 264.57523845 535.83650517 256.16725707 C535.6745667 255.39317504 535.51262822 254.61909301 535.34578252 253.82155395 C529.76884539 227.31179188 520.00927181 201.12065114 503.83650517 179.16725707 C502.81170049 177.7363977 502.81170049 177.7363977 501.76619267 176.27663207 C468.89395516 131.26876565 418.61863216 95.16648213 362.83650517 86.16725707 C352.40938984 84.74639683 341.87833482 85.02463224 331.38041997 85.0335443 C329.29176794 85.03167449 327.20311625 85.02937311 325.11446512 85.02667898 C319.39153648 85.02057559 313.66862249 85.02069285 307.94569135 85.02187335 C301.76690374 85.02207773 295.5881208 85.01655506 289.40933537 85.01181579 C277.30990227 85.00351662 265.21047536 85.0007483 253.11104016 85.00020341 C243.27353705 84.99974328 233.43603551 84.99768193 223.59853292 84.99450278 C220.76342833 84.99360519 217.92832375 84.99271538 215.09321916 84.99182791 C214.38833526 84.99160686 213.68345136 84.99138581 212.95720734 84.99115806 C193.13816929 84.98500646 173.31913179 84.98105723 153.50009274 84.98150134 C152.75333748 84.98151692 152.00658222 84.9815325 151.23719801 84.98154855 C147.45262198 84.98163165 143.66804595 84.98173069 139.88346992 84.98183326 C139.13188561 84.9818532 138.38030129 84.98187315 137.60594169 84.9818937 C136.08605553 84.98193413 134.56616937 84.98197593 133.04628321 84.98201909 C109.40701511 84.98263164 85.76776136 84.97512785 62.12849736 84.96144652 C35.54844473 84.94606942 8.96840153 84.93748129 -17.61165583 84.93840975 C-20.44864655 84.93848437 -23.28563726 84.93853308 -26.12262797 84.93856406 C-26.82112757 84.93857572 -27.51962717 84.93858737 -28.23929342 84.93859938 C-39.45563328 84.93863009 -50.67196062 84.93225784 -61.88829676 84.9236318 C-73.17110307 84.91513441 -84.45389139 84.91435249 -95.73670073 84.92074112 C-101.84305318 84.92400118 -107.94936052 84.92408154 -114.05570865 84.91538787 C-119.65433299 84.90749927 -125.25287663 84.90897836 -130.85149907 84.917672 C-132.86828343 84.9192018 -134.8850739 84.91741062 -136.90185107 84.91181193 C-152.75229215 84.87075238 -168.17095106 85.62270705 -183.53849483 89.85475707 Z " fill="#030149" transform="translate(476.16349482536316,44.83274292945862)"/>
<path d="M0 0 C5.56657479 4.35841353 10.63884258 9.16128678 15.55859375 14.2265625 C23.85969092 22.75890526 32.26145696 30.36120585 42.03027344 37.18017578 C43.78722589 38.41076664 45.51740919 39.67159566 47.24609375 40.94140625 C66.39544818 54.6718229 88.83433074 64.64649843 110.92578125 72.5078125 C112.39328187 73.05063879 113.86073275 73.59359957 115.328125 74.13671875 C133.70677993 80.75532338 153.45638468 85.76213876 172.92578125 87.5078125 C174.49369495 87.68964409 176.06138702 87.87339241 177.62890625 88.05859375 C216.49311066 92.34882152 255.76714301 89.49438251 293.92578125 81.5078125 C294.86212402 81.31348633 295.7984668 81.11916016 296.76318359 80.91894531 C312.34984064 77.56544304 327.1606416 71.40170671 341.92578125 65.5078125 C342.75271484 65.18022949 343.57964844 64.85264648 344.43164062 64.51513672 C366.47400404 55.68709959 387.26026972 43.11008342 405.92578125 28.5078125 C407.33150391 27.41146484 407.33150391 27.41146484 408.765625 26.29296875 C414.40273882 21.79434636 419.54032449 17.00446875 424.58984375 11.859375 C435.58516048 0.790511 446.83674882 -7.33090714 462.86328125 -7.8671875 C475.24762543 -7.75395921 487.09176716 -2.96520631 496.0703125 5.5390625 C505.5263866 15.50390497 508.35765521 25.14643475 508.13671875 38.53125 C507.87656102 43.43570497 507.03206863 47.10819292 504.92578125 51.5078125 C504.58160156 52.31863281 504.23742187 53.12945313 503.8828125 53.96484375 C496.58522221 69.30101043 482.12550256 80.4197038 468.92578125 90.5078125 C467.93940674 91.26723145 467.93940674 91.26723145 466.93310547 92.04199219 C462.30906132 95.59298442 457.63228848 99.06709191 452.92578125 102.5078125 C452.25466309 103.0013623 451.58354492 103.49491211 450.89208984 104.00341797 C439.657595 112.23312063 428.01309966 119.59507335 415.92578125 126.5078125 C414.89928467 127.0965918 414.89928467 127.0965918 413.85205078 127.69726562 C391.07447761 140.6089217 366.66926619 150.14901418 341.92578125 158.5078125 C341.1577417 158.77770996 340.38970215 159.04760742 339.59838867 159.32568359 C287.88185103 177.27668391 224.64546775 182.42469105 170.57373047 173.92236328 C167.98773016 173.51751094 165.39943801 173.16020444 162.8046875 172.81640625 C129.54198287 168.3009003 95.98988316 160.35865087 64.92578125 147.5078125 C63.7807312 147.04592529 63.7807312 147.04592529 62.61254883 146.57470703 C38.96426958 137.00332055 16.74113434 125.26257211 -4.07421875 110.5078125 C-4.86119141 109.95738281 -5.64816406 109.40695312 -6.45898438 108.83984375 C-16.06488613 102.11651102 -25.28909098 95.03156362 -34.328125 87.56640625 C-37.75777789 84.74224507 -41.27497815 82.05382439 -44.82421875 79.3828125 C-49.23490134 76.00476793 -53.49888595 72.52399115 -57.63671875 68.8203125 C-58.58675781 67.97082031 -59.53679687 67.12132812 -60.515625 66.24609375 C-68.6506519 57.53975199 -70.59436392 47.0166078 -70.44921875 35.4453125 C-70.46082031 34.51654297 -70.47242188 33.58777344 -70.484375 32.63085938 C-70.44032058 22.16793495 -67.85539651 15.42179985 -60.58984375 7.86328125 C-43.97853282 -7.69047727 -19.83321738 -13.71489566 0 0 Z " fill="#9040F6" transform="translate(354.07421875,514.4921875)"/>
</svg>
