<svg width="496" height="465" viewBox="0 0 496 465" fill="none" xmlns="http://www.w3.org/2000/svg">
<rect x="93" y="78" width="309" height="309" rx="50" fill="white"/>
<path d="M298.529 207.425C283.091 198.75 265.737 194.126 247.982 194.126C230.228 194.126 212.894 198.75 197.436 207.425C203.628 213.64 209.419 220.554 214.79 228.127C224.057 241.192 230.249 253.579 233.956 262.169L247.982 239.114L262.009 262.169C265.716 253.579 271.887 241.192 281.175 228.127C286.545 220.554 292.358 213.661 298.529 207.425ZM368.957 182.46C350.529 186.087 333.806 193.914 318.937 205.771C315.61 208.422 312.387 211.264 309.249 214.318C302.973 220.448 297.055 227.363 291.537 235.105C275.951 256.973 269.528 277.335 269.465 277.547C268.749 279.859 266.79 281.534 264.41 281.895C264.115 281.937 263.799 281.959 263.504 281.959C261.44 281.959 259.503 280.941 258.323 279.18L247.982 263.675L237.641 279.18C236.483 280.941 234.524 281.959 232.46 281.959C232.165 281.959 231.849 281.937 231.555 281.895C229.175 281.534 227.216 279.859 226.5 277.547C226.437 277.356 220.013 256.973 204.428 235.126C198.868 227.342 192.907 220.363 186.589 214.212C185.873 213.512 185.136 212.813 184.399 212.134C184.378 212.113 184.357 212.091 184.336 212.07C181.956 209.864 179.513 207.786 177.048 205.792C162.179 193.914 145.457 186.109 127.028 182.482C123.658 181.782 121.447 178.494 122.121 175.079C122.774 171.685 126.059 169.458 129.429 170.116C150.785 174.337 170.498 183.966 187.726 198.453C205.923 187.381 226.689 181.421 248.003 181.421C269.317 181.421 290.083 187.36 308.28 198.453C325.508 183.966 345.2 174.337 366.577 170.116C369.968 169.458 373.233 171.664 373.886 175.079C374.539 178.494 372.327 181.782 368.957 182.46ZM169.129 212.41C147.584 232.114 133.389 259.242 129.198 288.767C128.713 292.225 131.093 295.449 134.547 295.936C138.001 296.424 141.181 294.027 141.666 290.549C145.436 263.93 158.199 239.517 177.596 221.785C178.754 220.724 179.955 219.685 181.155 218.667C178.017 215.676 174.795 212.876 171.467 210.31C170.688 211.01 169.909 211.688 169.129 212.41ZM366.788 288.767C367.273 292.225 364.893 295.449 361.439 295.936C361.144 295.979 360.828 296 360.533 296C357.458 296 354.762 293.709 354.299 290.549C350.529 263.93 337.766 239.517 318.369 221.785C317.189 220.724 316.01 219.685 314.809 218.667C317.947 215.676 321.17 212.876 324.497 210.31C325.298 210.988 326.077 211.688 326.856 212.41C348.423 232.114 362.597 259.242 366.788 288.767Z" fill="#24336A"/>
</svg>
